<svg xmlns="http://www.w3.org/2000/svg" xml:space="preserve" style="enable-background:new 0 0 336 336" viewBox="0 0 336 336">
  <path d="m180.2 67.2 49.7 28.7c1.8 1 1.9 3.8 0 4.8l-59.1 34.1c-1.8 1-3.9 1-5.6 0l-59.1-34.1c-1.8-1-1.9-3.8 0-4.8l49.7-28.7V11L29 84.2v146.5-.7.7l48.6-28.1v-57.4c0-2 2.4-3.5 4.2-2.4l59.1 34.1c1.8 1 2.8 2.9 2.8 4.8V250c0 2-2.4 3.5-4.2 2.4l-49.7-28.7-48.6 28.1L168 325l126.8-73.2-48.6-28.1-49.7 28.7c-1.8 1.1-4.2-.3-4.2-2.4v-68.2c0-2 1.1-3.9 2.8-4.8l59.1-34.1c1.8-1.1 4.2.3 4.2 2.4v57.4l48.6 28.1V84.2L180.2 11v56.2z" style="fill:#424242"/>
</svg>